<svg width="1920" height="1080" viewBox="0 0 1920 1080" fill="none" xmlns="http://www.w3.org/2000/svg">
<path d="M429.071 511.246H422V568.754H429.071V511.246Z" fill="white"/>
<path d="M522.473 555.831L487.085 511.246H481.027V568.754H487.943V523.159L524.11 568.754H529.389V511.246H522.473V555.831Z" fill="white"/>
<path d="M622.604 555.831L587.216 511.246H581.158V568.754H588.073V523.159L624.24 568.754H629.519V511.246H622.604V555.831Z" fill="white"/>
<path d="M688.359 543.143H719.599V536.467H688.359V517.922H723.104V511.246H681.288V568.754H723.494V562.078H688.359V543.143Z" fill="white"/>
<path d="M784.423 543.691C782.323 542.824 780.471 541.67 778.919 540.26C777.345 538.83 776.097 537.104 775.208 535.13C774.319 533.15 773.868 530.886 773.868 528.401V528.246C773.868 526.084 774.274 524.015 775.076 522.098C775.876 520.186 777.007 518.491 778.439 517.058C780.249 515.252 782.581 513.813 785.372 512.78C788.125 511.762 791.316 511.246 794.854 511.246H819.269V568.754H812.197V546.179H796.611L779.238 568.754H770.278L788.633 545.013C787.155 544.68 785.746 544.237 784.423 543.691ZM812.197 517.922H795.088C790.472 517.922 786.893 518.892 784.451 520.804C782.088 522.653 780.939 525.126 780.939 528.361V528.517C780.939 530.24 781.287 531.778 781.974 533.088C782.673 534.42 783.645 535.567 784.863 536.493C786.112 537.445 787.638 538.189 789.399 538.706C791.198 539.235 793.19 539.503 795.322 539.503H812.197V517.922Z" fill="white"/>
<path d="M887.696 510.857L860.902 568.754H868.443L875.376 553.497H905.606L912.54 568.754H920.314L893.521 510.857H887.696ZM878.468 546.82L890.526 520.442L902.52 546.82H878.468Z" fill="white"/>
<path d="M1006.3 554.969C1003.68 557.592 1000.95 559.618 998.203 560.992C995.52 562.332 992.287 563.012 988.596 563.012C985.554 563.012 982.697 562.416 980.104 561.239C977.495 560.056 975.206 558.418 973.302 556.37C971.387 554.312 969.848 551.85 968.729 549.053C967.612 546.264 967.046 543.219 967.046 540V539.844C967.046 536.625 967.601 533.59 968.693 530.823C969.787 528.054 971.312 525.607 973.225 523.551C975.128 521.505 977.413 519.882 980.016 518.726C982.613 517.573 985.473 516.988 988.518 516.988C990.414 516.988 992.196 517.184 993.814 517.569C995.449 517.961 996.975 518.489 998.349 519.139C999.724 519.79 1001.04 520.587 1002.25 521.507C1003.5 522.453 1004.71 523.49 1005.86 524.588L1006.94 525.621L1011.95 520.483L1010.81 519.432C1009.37 518.099 1007.87 516.868 1006.34 515.772C1004.79 514.654 1003.1 513.676 1001.34 512.865C999.564 512.044 997.608 511.405 995.528 510.967C993.46 510.532 991.128 510.312 988.596 510.312C984.454 510.312 980.577 511.102 977.074 512.661C973.582 514.215 970.522 516.374 967.98 519.078C965.445 521.775 963.431 524.958 961.992 528.54C960.55 532.128 959.819 535.984 959.819 540V540.156C959.819 544.221 960.536 548.1 961.949 551.684C963.365 555.277 965.372 558.441 967.912 561.089C970.456 563.74 973.515 565.857 977.006 567.381C980.507 568.912 984.353 569.688 988.44 569.688C990.932 569.688 993.274 569.439 995.401 568.949C997.525 568.459 999.53 567.768 1001.36 566.894C1003.18 566.027 1004.92 564.963 1006.53 563.735C1008.1 562.54 1009.65 561.205 1011.14 559.769L1012.27 558.687L1007.35 553.917L1006.3 554.969Z" fill="white"/>
<path d="M1054.04 517.922H1073.05V568.754H1080.12V517.922H1099.13V511.246H1054.04V517.922Z" fill="white"/>
<path d="M1152.91 511.246H1145.84V568.754H1152.91V511.246Z" fill="white"/>
<path d="M1226.59 559.038L1206.24 511.246H1198.41L1223.73 569.143H1229.29L1254.6 511.246H1247.01L1226.59 559.038Z" fill="white"/>
<path d="M1307.18 511.246H1300.1V568.754H1307.18V511.246Z" fill="white"/>
<path d="M1353.84 517.922H1372.85V568.754H1379.92V517.922H1398.93V511.246H1353.84V517.922Z" fill="white"/>
<path d="M1489.46 511.246L1469.76 539.388L1450.13 511.246H1441.36L1466.14 546.164V568.754H1473.21V546.087L1498 511.246H1489.46Z" fill="white"/>
</svg>
